<?xml version="1.0" encoding="UTF-8"?>
<svg width="36px" height="36px" viewBox="0 0 36 36" version="1.1" xmlns="http://www.w3.org/2000/svg" xmlns:xlink="http://www.w3.org/1999/xlink">
    <title>Shape</title>
    <g id="Page-1" stroke="none" stroke-width="1" fill="none" fill-rule="evenodd">
        <path d="M32,0 C34.2,0 36,1.8 36,4 L36,32 C36,34.2 34.2,36 32,36 L4,36 C1.8,36 0,34.2 0,32 L0,4 C0,1.8 1.8,0 4,0 L32,0 Z M13.8,4 L6.2,4 C5.05217391,4 4.08733459,4.91493384 4.00560533,6.04467823 L4,6.2 L4,27.8 C4,28.9478261 4.91493384,29.9126654 6.04467823,29.9943947 L6.2,30 L13.8,30 C14.9478261,30 15.9126654,29.0850662 15.9943947,27.9553218 L16,27.8 L16,6.2 C16,5.05217391 15.0850662,4.08733459 13.9553218,4.00560533 L13.8,4 Z M29.8,4 L22.2,4 C21,4 20,5 20,6.2 L20,16.8 C20,18 21,19 22.2,19 L29.8,19 C31,19 32,18 32,16.8 L32,6.2 C32,5 31,4 29.8,4 Z" id="Shape" fill="currentColor" fill-rule="nonzero"></path>
    </g>
</svg>
