<?xml version="1.0" standalone="no"?>
<!DOCTYPE svg PUBLIC "-//W3C//DTD SVG 20010904//EN"
 "http://www.w3.org/TR/2001/REC-SVG-20010904/DTD/svg10.dtd">
<svg version="1.0" xmlns="http://www.w3.org/2000/svg"
 width="700.000000pt" height="700.000000pt" viewBox="0 0 700.000000 700.000000"
 preserveAspectRatio="xMidYMid meet">
<metadata>
Created by potrace 1.11, written by Peter Selinger 2001-2013
</metadata>
<g transform="translate(0.000000,700.000000) scale(0.100000,-0.100000)"
fill="#000000" stroke="none">
<path d="M630 6985 c-244 -50 -436 -198 -546 -420 -87 -178 -79 141 -79 -3065
0 -2691 1 -2849 18 -2910 61 -224 209 -405 412 -506 178 -87 -141 -79 3065
-79 3206 0 2887 -8 3065 79 203 101 351 282 412 506 17 61 18 219 18 2910 0
2695 -1 2848 -18 2910 -81 299 -316 519 -614 576 -107 20 -5632 19 -5733 -1z
m2180 -785 c119 -40 204 -115 259 -230 l36 -75 3 -2182 c2 -2177 2 -2183 -18
-2244 -40 -118 -118 -208 -230 -262 l-65 -32 -825 -3 c-799 -2 -827 -2 -890
17 -130 40 -240 149 -280 279 -20 63 -20 99 -20 2227 0 2115 0 2165 19 2226
40 127 143 233 270 276 l66 22 808 1 c782 0 809 -1 867 -20z m3113 0 c125 -39
238 -152 277 -277 20 -64 20 -89 20 -1158 0 -1045 -1 -1096 -19 -1154 -38
-121 -111 -205 -231 -264 l-65 -32 -850 0 -850 0 -68 33 c-76 38 -151 105
-190 172 -59 102 -58 63 -55 1271 l3 1104 36 75 c56 115 145 195 259 231 51
17 119 18 861 18 782 1 809 0 872 -19z"/>
</g>
</svg>
